0
SECTION
2
HEADER
9
$INSUNITS
70
4
9
$ACADVER
1
AC1014
9
$HANDSEED
5
FFFF
0
ENDSEC
0
SECTION
2
TABLES
0
TABLE
2
VPORT
5
8
100
AcDbSymbolTable
0
ENDTAB
0
TABLE
2
LTYPE
5
5
100
AcDbSymbolTable
0
LTYPE
5
14
100
AcDbSymbolTableRecord
100
AcDbLinetypeTableRecord
2
BYBLOCK
70
0
0
LTYPE
5
15
100
AcDbSymbolTableRecord
100
AcDbLinetypeTableRecord
2
BYLAYER
70
0
0
ENDTAB
0
TABLE
2
LAYER
5
2
100
AcDbSymbolTable
70
2
0
LAYER
5
50
100
AcDbSymbolTableRecord
100
AcDbLayerTableRecord
2
0
70
0
6
CONTINUOUS
0
ENDTAB
0
TABLE
2
STYLE
5
3
100
AcDbSymbolTable
70
1
0
STYLE
5
11
100
AcDbSymbolTableRecord
100
AcDbTextStyleTableRecord
2
STANDARD
70
0
0
ENDTAB
0
TABLE
2
VIEW
5
6
100
AcDbSymbolTable
70
0
0
ENDTAB
0
TABLE
2
UCS
5
7
100
AcDbSymbolTable
70
0
0
ENDTAB
0
TABLE
2
APPID
5
9
100
AcDbSymbolTable
70
2
0
APPID
5
12
100
AcDbSymbolTableRecord
100
AcDbRegAppTableRecord
2
ACAD
70
0
0
ENDTAB
0
TABLE
2
DIMSTYLE
5
A
100
AcDbSymbolTable
70
1
0
ENDTAB
0
TABLE
2
BLOCK_RECORD
5
1
100
AcDbSymbolTable
70
1
0
BLOCK_RECORD
5
1F
100
AcDbSymbolTableRecord
100
AcDbBlockTableRecord
2
*MODEL_SPACE
0
BLOCK_RECORD
5
1B
100
AcDbSymbolTableRecord
100
AcDbBlockTableRecord
2
*PAPER_SPACE
0
ENDTAB
0
ENDSEC
0
SECTION
2
BLOCKS
0
BLOCK
5
20
100
AcDbEntity
100
AcDbBlockBegin
2
*MODEL_SPACE
0
ENDBLK
5
21
100
AcDbEntity
100
AcDbBlockEnd
0
BLOCK
5
1C
100
AcDbEntity
100
AcDbBlockBegin
2
*PAPER_SPACE
0
ENDBLK
5
1D
100
AcDbEntity
100
AcDbBlockEnd
0
ENDSEC
0
SECTION
2
ENTITIES
0
LWPOLYLINE
5
100
100
AcDbEntity
8
0
100
AcDbPolyline
90
8
70
1
43
0.0
10
-44.90000000000002
20
33.049999999999997
10
-31.300000000000004
20
33.049999999999997
42
-0.41421356237310802
10
-31.100000000000001
20
32.849999999999994
10
-31.100000000000001
20
19.250000000000004
42
-0.41421356237309825
10
-31.299999999999997
20
19.050000000000004
10
-44.900000000000013
20
19.050000000000004
42
-0.41421356237309825
10
-45.100000000000009
20
19.250000000000004
10
-45.100000000000009
20
32.849999999999994
42
-0.41421356237308854
0
LWPOLYLINE
5
101
100
AcDbEntity
8
0
100
AcDbPolyline
90
8
70
1
43
0.0
10
-31.100000000000001
20
13.800000000000001
10
-31.100000000000001
20
0.20000000000000021
42
-0.41421356237310442
10
-31.300000000000004
20
2.4980018054066022e-15
10
-44.900000000000013
20
9.0205620750793969e-16
42
-0.41421356237310025
10
-45.100000000000009
20
0.20000000000000018
10
-45.100000000000009
20
13.800000000000001
42
-0.41421356237309825
10
-44.900000000000013
20
14
10
-31.299999999999997
20
14
42
-0.41421356237309825
0
LWPOLYLINE
5
102
100
AcDbEntity
8
0
100
AcDbPolyline
90
8
70
1
43
0.0
10
-12.050000000000001
20
11.800000000000001
10
-12.050000000000001
20
-1.8000000000000016
42
-0.41421356237309426
10
-12.25
20
-2.0000000000000013
10
-25.850000000000005
20
-1.9999999999999978
42
-0.41421356237310442
10
-26.050000000000004
20
-1.8000000000000003
10
-26.050000000000004
20
11.800000000000001
42
-0.41421356237309825
10
-25.850000000000009
20
12
10
-12.25
20
12.000000000000002
42
-0.41421356237310153
0
LWPOLYLINE
5
103
100
AcDbEntity
8
0
100
AcDbPolyline
90
8
70
1
43
0.0
10
-12.050000000000001
20
30.850000000000009
10
-12.050000000000001
20
17.25
42
-0.41421356237310153
10
-12.25
20
17.050000000000001
10
-25.850000000000009
20
17.050000000000004
42
-0.41421356237309825
10
-26.050000000000004
20
17.25
10
-26.050000000000004
20
30.850000000000005
42
-0.41421356237310802
10
-25.850000000000005
20
31.050000000000004
10
-12.25
20
31.050000000000004
42
-0.41421356237309825
0
LWPOLYLINE
5
104
100
AcDbEntity
8
0
100
AcDbPolyline
90
8
70
1
43
0.0
10
-12.050000000000001
20
-7.2499999999999964
10
-12.050000000000001
20
-20.850000000000001
42
-0.41421356237309503
10
-12.25
20
-21.050000000000001
10
-25.850000000000005
20
-21.049999999999997
42
-0.41421356237310153
10
-26.050000000000004
20
-20.850000000000001
10
-26.050000000000008
20
-7.2499999999999964
42
-0.41421356237309664
10
-25.850000000000005
20
-7.0500000000000007
10
-12.25
20
-7.0500000000000007
42
-0.41421356237308854
0
LWPOLYLINE
5
105
100
AcDbEntity
8
0
100
AcDbPolyline
90
8
70
1
43
0.0
10
-31.100000000000001
20
-5.2499999999999991
10
-31.100000000000001
20
-18.849999999999998
42
-0.4142135623731048
10
-31.299999999999997
20
-19.050000000000001
10
-44.900000000000013
20
-19.050000000000001
42
-0.41421356237309825
10
-45.100000000000009
20
-18.850000000000001
10
-45.100000000000009
20
-5.2499999999999991
42
-0.41421356237309992
10
-44.900000000000013
20
-5.0499999999999998
10
-31.300000000000004
20
-5.0500000000000043
42
-0.41421356237309992
0
LWPOLYLINE
5
106
100
AcDbEntity
8
0
100
AcDbPolyline
90
16
70
1
43
0.0
10
-60.379519000000002
20
64.029864000000003
10
-49.503824999999999
20
58.958444999999998
10
-48.778779472739473
20
58.620350633918989
42
-0.41421343859104987
10
-48.682041557314555
20
58.354565491539319
10
-49.020136000000001
20
57.629519000000009
10
-54.091555000000007
20
46.753825000000006
10
-54.429649366081023
20
46.028779472739465
42
-0.41421343859104987
10
-54.695434508460686
20
45.932041557314555
10
-55.420481000000009
20
46.270136000000008
10
-66.296174999999991
20
51.341555
10
-67.021220527260539
20
51.679649366081023
42
-0.41421343859104987
10
-67.117958442685449
20
51.945434508460693
10
-66.779864000000003
20
52.670481000000002
10
-61.708445000000005
20
63.546174999999998
10
-61.370350633918981
20
64.271220527260539
42
-0.41421343859104987
10
-61.104565491539311
20
64.367958442685463
0
LWPOLYLINE
5
107
100
AcDbEntity
8
0
100
AcDbPolyline
90
8
70
1
43
0.0
10
7.0000000000000018
20
6.8000000000000016
10
7.0000000000000009
20
-6.8000000000000016
42
-0.41421356237308693
10
6.8000000000000007
20
-7.0000000000000009
10
-6.8000000000000016
20
-7.0000000000000009
42
-0.41421356237308693
10
-7.0000000000000009
20
-6.8000000000000007
10
-7.0000000000000009
20
6.8000000000000016
42
-0.41421356237308693
10
-6.8000000000000007
20
7.0000000000000009
10
6.7999999999999972
20
7.0000000000000018
42
-0.41421356237309176
0
LWPOLYLINE
5
108
100
AcDbEntity
8
0
100
AcDbPolyline
90
8
70
1
43
0.0
10
7.0000000000000018
20
-12.249999999999996
10
6.9999999999999964
20
-25.850000000000009
42
-0.41421356237309503
10
6.8000000000000007
20
-26.050000000000004
10
-6.8000000000000016
20
-26.050000000000004
42
-0.41421356237309992
10
-6.9999999999999964
20
-25.850000000000005
10
-7
20
-12.249999999999996
42
-0.41421356237308693
10
-6.8000000000000007
20
-12.050000000000001
10
6.7999999999999972
20
-12.049999999999999
42
-0.41421356237309176
0
LWPOLYLINE
5
109
100
AcDbEntity
8
0
100
AcDbPolyline
90
8
70
1
43
0.0
10
26.050000000000004
20
11.800000000000001
10
26.050000000000004
20
-1.8000000000000016
42
-0.41421356237310236
10
25.850000000000005
20
-1.9999999999999978
10
12.249999999999996
20
-2.0000000000000009
42
-0.41421356237308937
10
12.050000000000001
20
-1.7999999999999998
10
12.050000000000001
20
11.800000000000001
42
-0.41421356237310153
10
12.25
20
12.000000000000002
10
25.850000000000009
20
12
42
-0.41421356237309825
0
LWPOLYLINE
5
110
100
AcDbEntity
8
0
100
AcDbPolyline
90
8
70
1
43
0.0
10
45.100000000000016
20
4.7500000000000009
10
45.100000000000009
20
-8.8499999999999979
42
-0.41421356237309176
10
44.90000000000002
20
-9.0500000000000007
10
31.300000000000008
20
-9.0500000000000007
42
-0.41421356237310314
10
31.100000000000001
20
-8.8499999999999996
10
31.099999999999998
20
4.7500000000000009
42
-0.41421356237310314
10
31.300000000000004
20
4.9500000000000002
10
44.90000000000002
20
4.9500000000000082
42
-0.4142135623730861
0
LWPOLYLINE
5
111
100
AcDbEntity
8
0
100
AcDbPolyline
90
8
70
1
43
0.0
10
26.050000000000004
20
-7.2499999999999964
10
26.050000000000004
20
-20.850000000000001
42
-0.41421356237310153
10
25.850000000000005
20
-21.049999999999997
10
12.249999999999996
20
-21.050000000000001
42
-0.41421356237308854
10
12.050000000000001
20
-20.850000000000001
10
12.050000000000001
20
-7.2499999999999964
42
-0.41421356237308854
10
12.25
20
-7.0500000000000007
10
25.850000000000009
20
-7.0500000000000043
42
-0.41421356237309015
0
LWPOLYLINE
5
112
100
AcDbEntity
8
0
100
AcDbPolyline
90
8
70
1
43
0.0
10
64.149999999999991
20
4.7500000000000009
10
64.149999999999991
20
-8.8499999999999979
42
-0.4142135623731048
10
63.949999999999996
20
-9.0500000000000007
10
50.350000000000001
20
-9.0499999999999972
42
-0.41421356237309825
10
50.150000000000006
20
-8.8499999999999996
10
50.150000000000006
20
4.7500000000000009
42
-0.41421356237309914
10
50.350000000000001
20
4.9499999999999993
10
63.949999999999996
20
4.9499999999999993
42
-0.41421356237309914
0
LWPOLYLINE
5
113
100
AcDbEntity
8
0
100
AcDbPolyline
90
16
70
1
43
0.0
10
-9.5329219999999992
20
54.646296999999997
10
-8.7359661340906936
20
54.716021788268556
42
-0.4142138541517032
10
-8.51929598674948
20
54.534213848544525
10
-8.4495719999999999
20
53.737257999999997
10
-7.4037029999999993
20
41.782922000000006
10
-7.3339782117314485
20
40.985966134090702
42
-0.41421385415175033
10
-7.515786151455468
20
40.769295986749484
10
-8.3127420000000019
20
40.699572000000003
10
-20.267078000000001
20
39.653703
10
-21.064033865909316
20
39.583978211731448
42
-0.41421385415171619
10
-21.280704013250524
20
39.765786151455472
10
-21.350428000000004
20
40.562742
10
-22.396297000000001
20
52.517077999999998
10
-22.466021788268549
20
53.314033865909309
42
-0.41421385415172268
10
-22.284213848544535
20
53.530704013250514
10
-21.487258000000004
20
53.600428000000008
0
LWPOLYLINE
5
114
100
AcDbEntity
8
0
100
AcDbPolyline
90
16
70
1
43
0.0
10
-41.593308999999998
20
56.085543000000008
10
-29.775615999999999
20
54.001765000000006
10
-28.987769752137819
20
53.862846626825977
42
-0.4142138508165269
10
-28.825537820795347
20
53.631155282064277
10
-28.964457000000003
20
52.843309000000005
10
-31.048235000000002
20
41.025616000000007
10
-31.187153373174034
20
40.237769752137815
42
-0.41421385081656642
10
-31.418844717935727
20
40.07553782079534
10
-32.206691000000006
20
40.214457000000003
10
-44.024384000000005
20
42.298235000000005
10
-44.812230247862182
20
42.437153373174034
42
-0.41421385081653961
10
-44.97446217920465
20
42.668844717935734
10
-44.835543000000008
20
43.456691000000006
10
-42.751764999999999
20
55.274384000000005
10
-42.612846626825956
20
56.062230247862182
42
-0.41421385081656525
10
-42.381155282064277
20
56.22446217920465
0
LWPOLYLINE
5
115
100
AcDbEntity
8
0
100
AcDbPolyline
90
8
70
1
43
0.0
10
64.149999999999991
20
23.800000000000004
10
64.149999999999991
20
10.199999999999999
42
-0.41421356237309825
10
63.949999999999996
20
10.000000000000002
10
50.350000000000001
20
10.000000000000002
42
-0.41421356237309825
10
50.150000000000006
20
10.199999999999999
10
50.150000000000006
20
23.800000000000004
42
-0.41421356237310153
10
50.350000000000001
20
24.000000000000004
10
63.949999999999996
20
24.000000000000004
42
-0.41421356237310153
0
LWPOLYLINE
5
116
100
AcDbEntity
8
0
100
AcDbPolyline
90
8
70
1
43
0.0
10
45.100000000000016
20
23.800000000000004
10
45.100000000000009
20
10.199999999999999
42
-0.41421356237309825
10
44.900000000000013
20
10.000000000000002
10
31.299999999999997
20
10.000000000000002
42
-0.41421356237309825
10
31.100000000000001
20
10.199999999999999
10
31.100000000000001
20
23.800000000000004
42
-0.41421356237310802
10
31.300000000000004
20
24.000000000000004
10
44.90000000000002
20
24.000000000000014
42
-0.41421356237308854
0
LWPOLYLINE
5
117
100
AcDbEntity
8
0
100
AcDbPolyline
90
8
70
1
43
0.0
10
45.100000000000016
20
42.850000000000001
10
45.100000000000009
20
29.250000000000004
42
-0.41421356237308854
10
44.90000000000002
20
29.050000000000004
10
31.300000000000008
20
29.050000000000004
42
-0.41421356237311452
10
31.100000000000001
20
29.250000000000004
10
31.100000000000001
20
42.850000000000001
42
-0.41421356237310153
10
31.300000000000004
20
43.049999999999997
10
44.90000000000002
20
43.050000000000004
42
-0.41421356237308204
0
LWPOLYLINE
5
118
100
AcDbEntity
8
0
100
AcDbPolyline
90
8
70
1
43
0.0
10
6.9999999999999929
20
25.850000000000005
10
7
20
12.25
42
-0.41421356237309342
10
6.8000000000000007
20
12.050000000000001
10
-6.8000000000000016
20
12.050000000000001
42
-0.41421356237309176
10
-7
20
12.25
10
-7.0000000000000009
20
25.850000000000005
42
-0.41421356237310153
10
-6.8000000000000007
20
26.050000000000008
10
6.7999999999999972
20
26.050000000000001
42
-0.41421356237310641
0
LWPOLYLINE
5
119
100
AcDbEntity
8
0
100
AcDbPolyline
90
8
70
1
43
0.0
10
26.050000000000004
20
30.850000000000005
10
26.050000000000004
20
17.25
42
-0.41421356237309825
10
25.850000000000009
20
17.050000000000004
10
12.249999999999996
20
17.050000000000001
42
-0.41421356237309503
10
12.050000000000001
20
17.25
10
12.050000000000002
20
30.850000000000009
42
-0.41421356237309825
10
12.25
20
31.050000000000004
10
25.850000000000009
20
31.050000000000004
42
-0.41421356237310153
0
LWPOLYLINE
5
120
100
AcDbEntity
8
0
100
AcDbPolyline
90
8
70
1
43
0.0
10
64.149999999999991
20
42.850000000000001
10
64.149999999999991
20
29.250000000000004
42
-0.41421356237310153
10
63.949999999999996
20
29.050000000000004
10
50.350000000000001
20
29.050000000000004
42
-0.41421356237310153
10
50.150000000000006
20
29.250000000000004
10
50.150000000000006
20
42.850000000000001
42
-0.41421356237309503
10
50.350000000000001
20
43.049999999999997
10
63.949999999999996
20
43.049999999999997
42
-0.41421356237309503
0
LWPOLYLINE
5
121
100
AcDbEntity
8
0
100
AcDbPolyline
90
99
70
1
43
0.0
10
-47.915019744473987
20
62.862554125298772
42
0.33186709344829474
10
-47.78785945591526
20
62.278347441982795
42
0.11397908265568392
10
-15.939999999999337
20
57.819999999992064
10
-7.6099999999995562
20
58.539999999994485
42
-0.22493400140140421
10
-3.7900000000027556
20
57.089999999997374
42
0.031630087264285366
10
-1.2120724834100358
20
54.418792866587893
42
0.47181471985763457
10
-0.073477988262906635
20
54.633187141390316
10
0.92053641227826788
20
56.439875897054421
42
-0.41421356237309043
10
2.2787272821118343
20
56.833979387397669
10
11.040199082995928
20
52.013542489946055
42
-0.41421356237309559
10
11.434302573339181
20
50.655351620112484
10
10.329343230274787
20
48.647012888305817
42
0.46308405497094279
10
10.638743418040235
20
47.835807148617214
42
0.075574368658972838
10
19.39999999999997
20
46.750000000000639
10
32.599999999999987
20
46.750000000000327
42
0.41421356237309764
10
33.100000000000009
20
47.250000000000313
10
33.100000000000001
20
49.750000000000085
42
-0.41421356237309631
10
34.100000000000001
20
50.750000000000085
10
42.100000000000009
20
50.750000000000085
42
-0.41421356237309503
10
43.100000000000009
20
49.750000000000085
10
43.100000000000009
20
47.250000000000071
42
0.41421356237308982
10
43.599999999999994
20
46.750000000000071
10
46.398448000000002
20
46.75
10
49.841592000000006
20
46.750039999999473
10
51.649998811533465
20
46.75003570153752
42
0.4142142585608436
10
52.149999999999999
20
47.250035701536106
10
52.149999999999999
20
49.750010743737491
42
-0.41421356237309503
10
53.149999999999991
20
50.750010743737484
10
61.150000000000006
20
50.750010743737484
42
-0.41421356237309503
10
62.149999999999999
20
49.750010743737491
10
62.149999999999999
20
47.250009555272356
42
0.41421286618569436
10
62.649998811533472
20
46.75000955527377
10
66.670000000000059
20
46.749999999992092
42
-0.41657333985692674
10
67.896551999994585
20
45.533448000000007
10
67.896551999994571
20
-11.57
42
-0.41421306988979933
10
66.659999999999997
20
-12.806552000000568
10
62.649963411354122
20
-12.806845443618727
42
0.41419212940296118
10
62.149999999999999
20
-13.306845442279993
10
62.149999999999999
20
-15.807822000000233
42
-0.4142135623730957
10
61.150000000000006
20
-16.807822000000236
10
53.149999999999991
20
-16.807822000000233
42
-0.41421356237309698
10
52.149999999999999
20
-15.807822000000229
10
52.149999999999999
20
-13.307650392491404
42
0.41423499566805122
10
51.649963411354136
20
-12.80765039383013
10
49.851506999999998
20
-12.807782000000003
10
46.408363000000001
20
-12.807822000000471
10
43.60000000000003
20
-12.807822000000384
42
0.41421356237310802
10
43.100000000000023
20
-13.307822000000389
10
43.100000000000016
20
-15.807822000000368
42
-0.41421356237309825
10
42.100000000000009
20
-16.807822000000368
10
34.100000000000009
20
-16.807822000000364
42
-0.41421356237308915
10
33.100000000000016
20
-15.807822000000371
10
33.100000000000016
20
-13.30782200000005
42
0.4142135623730846
10
32.600000000000037
20
-12.807822000000053
10
30.964373999999999
20
-12.807822
42
0.41418072187974303
10
29.727821999994006
20
-14.044373999999999
10
29.729999999990824
20
-23.57
42
-0.41739324367188296
10
28.480000000000008
20
-24.806551999999531
10
25.695000000000441
20
-24.806551999999613
42
0.41421356237308721
10
25.195000000000451
20
-25.306551999999609
10
25.195000000000462
20
-27.80655199999962
42
-0.41421356237309243
10
24.195000000000455
20
-28.806551999999623
10
16.195000000000455
20
-28.806551999999623
42
-0.41421356237309243
10
15.195000000000451
20
-27.80655199999962
10
15.195000000000455
20
-25.306551999999925
42
0.41421356237310153
10
14.695000000000444
20
-24.806551999999922
10
11.910000000000808
20
-24.806552000000003
42
0.41421482604374421
10
10.673451999991626
20
-26.043103999984901
10
10.673448000000004
20
-28.57
42
-0.41421306989121781
10
9.4368959999999991
20
-29.806552000000003
10
-9.5300000000000011
20
-29.806552000000561
42
-0.41421306989121937
10
-10.766552000000562
20
-28.57
10
-10.766551999999997
20
-25.980000000000004
42
0.41577392230091526
10
-12.003104000000002
20
-24.750000000000156
10
-13.549999999999997
20
-24.750000000000139
42
0.41421356237309764
10
-14.050000000000002
20
-25.250000000000135
10
-14.050000000000004
20
-27.750000000000135
42
-0.41421356237309048
10
-15.050000000000004
20
-28.750000000000135
10
-23.050000000000001
20
-28.750000000000135
42
-0.41421356237309115
10
-24.050000000000004
20
-27.750000000000128
10
-24.050000000000004
20
-25.250000000000036
42
0.41421356237309243
10
-24.549999999999997
20
-24.750000000000032
10
-28.689999999965082
20
-24.750000980642206
42
-0.35417535522819343
10
-29.900000985144391
20
-23.770000081781646
42
0.36250995893763971
10
-31.110000000000003
20
-22.759998999999993
10
-47.624999972156957
20
-22.759999388040583
10
-47.625
20
-21.574999999999996
10
-47.625
20
35.575000000000003
42
0.22782214521464589
10
-53.292856999999998
20
42.491979000000001
10
-70.558020999999997
20
50.542857000000005
10
-71.687579940199086
20
51.077209334662463
10
-63.629999999995057
20
68.110000000001165
42
-0.31162914940236669
10
-61.613868000001553
20
68.641487999995704
10
-57.685810968995966
20
66.764366686007165
42
0.41986342931308612
10
-57.015023556000664
20
67.008639640396169
10
-55.984735516358093
20
69.275797248789786
42
-0.41421356237310086
10
-54.660609329696754
20
69.772476060294437
10
-47.377389337032767
20
66.462686559667631
42
-0.41421356237308682
10
-46.880710525528109
20
65.138560373006271
0
ENDSEC
0
SECTION
2
OBJECTS
0
DICTIONARY
5
C
100
AcDbDictionary
3
ACAD_GROUP
350
D
3
ACAD_MLINESTYLE
350
17
0
DICTIONARY
5
D
100
AcDbDictionary
0
DICTIONARY
5
1A
330
C
100
AcDbDictionary
0
DICTIONARY
5
17
100
AcDbDictionary
0
ENDSEC
0
EOF
