0
SECTION
2
HEADER
9
$INSUNITS
70
4
9
$ACADVER
1
AC1014
9
$HANDSEED
5
FFFF
0
ENDSEC
0
SECTION
2
TABLES
0
TABLE
2
VPORT
5
8
100
AcDbSymbolTable
0
ENDTAB
0
TABLE
2
LTYPE
5
5
100
AcDbSymbolTable
0
LTYPE
5
14
100
AcDbSymbolTableRecord
100
AcDbLinetypeTableRecord
2
BYBLOCK
70
0
0
LTYPE
5
15
100
AcDbSymbolTableRecord
100
AcDbLinetypeTableRecord
2
BYLAYER
70
0
0
ENDTAB
0
TABLE
2
LAYER
5
2
100
AcDbSymbolTable
70
2
0
LAYER
5
50
100
AcDbSymbolTableRecord
100
AcDbLayerTableRecord
2
0
70
0
6
CONTINUOUS
0
ENDTAB
0
TABLE
2
STYLE
5
3
100
AcDbSymbolTable
70
1
0
STYLE
5
11
100
AcDbSymbolTableRecord
100
AcDbTextStyleTableRecord
2
STANDARD
70
0
0
ENDTAB
0
TABLE
2
VIEW
5
6
100
AcDbSymbolTable
70
0
0
ENDTAB
0
TABLE
2
UCS
5
7
100
AcDbSymbolTable
70
0
0
ENDTAB
0
TABLE
2
APPID
5
9
100
AcDbSymbolTable
70
2
0
APPID
5
12
100
AcDbSymbolTableRecord
100
AcDbRegAppTableRecord
2
ACAD
70
0
0
ENDTAB
0
TABLE
2
DIMSTYLE
5
A
100
AcDbSymbolTable
70
1
0
ENDTAB
0
TABLE
2
BLOCK_RECORD
5
1
100
AcDbSymbolTable
70
1
0
BLOCK_RECORD
5
1F
100
AcDbSymbolTableRecord
100
AcDbBlockTableRecord
2
*MODEL_SPACE
0
BLOCK_RECORD
5
1B
100
AcDbSymbolTableRecord
100
AcDbBlockTableRecord
2
*PAPER_SPACE
0
ENDTAB
0
ENDSEC
0
SECTION
2
BLOCKS
0
BLOCK
5
20
100
AcDbEntity
100
AcDbBlockBegin
2
*MODEL_SPACE
0
ENDBLK
5
21
100
AcDbEntity
100
AcDbBlockEnd
0
BLOCK
5
1C
100
AcDbEntity
100
AcDbBlockBegin
2
*PAPER_SPACE
0
ENDBLK
5
1D
100
AcDbEntity
100
AcDbBlockEnd
0
ENDSEC
0
SECTION
2
ENTITIES
0
ARC
5
100
100
AcDbEntity
8
0
100
AcDbCircle
10
-66.659998960400003
20
11.569998960406
30
0
40
1.2365530395950004
210
0
220
0
230
1
100
AcDbArc
50
90.000048169945089
51
179.99995183172823
0
LINE
5
101
100
AcDbEntity
8
0
100
AcDbLine
10
-66.659999999999997
20
12.806552000000565
30
0
11
-49.851506999999998
21
12.807782
31
0
0
LINE
5
102
100
AcDbEntity
8
0
100
AcDbLine
10
-46.408363000000001
20
12.807822000000469
30
0
11
-30.964373999999999
21
12.807822
31
0
0
ARC
5
103
100
AcDbEntity
8
0
100
AcDbCircle
10
-30.964443328550004
20
14.044443328556
30
0
40
1.2366213304993792
210
-0
220
0
230
1
100
AcDbArc
50
270.0032121662623
51
359.99678783348708
0
LINE
5
104
100
AcDbEntity
8
0
100
AcDbLine
10
-29.727821999994006
20
14.044373999999999
30
0
11
-29.730000000000004
21
23.57
31
0
0
ARC
5
105
100
AcDbEntity
8
0
100
AcDbCircle
10
-28.493392428789992
20
23.570016950641989
30
0
40
1.236607571317009
210
0
220
-0
230
1
100
AcDbArc
50
89.379476023363466
51
180.00078537477103
0
LINE
5
106
100
AcDbEntity
8
0
100
AcDbLine
10
-28.480000000000008
20
24.806551999999531
30
0
11
-11.910000000000808
21
24.806552000000003
31
0
0
ARC
5
107
100
AcDbEntity
8
0
100
AcDbCircle
10
-11.909999332480002
20
26.043099332497004
30
0
40
1.2365473324971823
210
0
220
0
230
1
100
AcDbArc
50
-90.00003092977029
51
0.00021626947631391401
0
LINE
5
108
100
AcDbEntity
8
0
100
AcDbLine
10
-10.673451999991627
20
26.043103999984901
30
0
11
-10.673448
21
28.57
31
0
0
ARC
5
109
100
AcDbEntity
8
0
100
AcDbCircle
10
-9.4368949604059971
20
28.569998960405997
30
0
40
1.2365530395944431
210
0
220
0
230
1
100
AcDbArc
50
90.000048169667551
51
179.99995183172823
0
LINE
5
110
100
AcDbEntity
8
0
100
AcDbLine
10
-9.4368960000000008
20
29.806552000000003
30
0
11
9.5300000000000011
21
29.806552000000561
31
0
0
ARC
5
111
100
AcDbEntity
8
0
100
AcDbCircle
10
9.5299989604060009
20
28.569998960406
30
0
40
1.2365530395949982
210
0
220
-0
230
1
100
AcDbArc
50
4.8168271761031e-05
51
89.99995183033262
0
LINE
5
112
100
AcDbEntity
8
0
100
AcDbLine
10
10.766552000000562
20
28.57
30
0
11
10.766552000000001
21
25.980000000000004
31
0
0
ARC
5
113
100
AcDbEntity
8
0
100
AcDbCircle
10
11.996562142907001
20
25.979992746244001
30
0
40
1.2300101429283898
210
0
220
0
230
1
100
AcDbArc
50
179.99966210943896
51
270.30473128280113
0
LINE
5
114
100
AcDbEntity
8
0
100
AcDbLine
10
12.003104000000002
20
24.750000000000153
30
0
11
28.689999999999998
21
24.75
31
0
0
ARC
5
115
100
AcDbEntity
8
0
100
AcDbCircle
10
28.690025164056003
20
23.513041273987
30
0
40
1.2369597069111702
210
0
220
-0
230
1
100
AcDbArc
50
11.989602238326189
51
90.001165596049432
0
ARC
5
116
100
AcDbEntity
8
0
100
AcDbCircle
10
31.109999964282999
20
23.989799521765001
30
0
40
1.2298005217650025
210
0
220
0
230
1
100
AcDbArc
50
190.29566170719707
51
270.00000166403697
0
ARC
5
117
100
AcDbEntity
8
0
100
AcDbCircle
10
62.236962189757996
20
-66.915402495149962
30
0
40
1.8351069558330393
210
0
220
0
230
1
100
AcDbArc
50
250.15108360526497
51
319.38530944798464
0
LINE
5
118
100
AcDbEntity
8
0
100
AcDbLine
10
61.613868000001553
20
-68.641487999995704
30
0
11
53.910000000001126
21
-64.959999999997635
31
0
0
ARC
5
119
100
AcDbEntity
8
0
100
AcDbCircle
10
22.212097311204001
20
-128.99629062930001
30
0
40
71.452106703923931
210
0
220
-0
230
1
100
AcDbArc
50
63.66463395799915
51
95.035930182001408
0
LINE
5
120
100
AcDbEntity
8
0
100
AcDbLine
10
15.939999999999337
20
-57.819999999992064
30
0
11
7.6099999999999799
21
-58.539999999999786
31
0
0
ARC
5
121
100
AcDbEntity
8
0
100
AcDbCircle
10
7.230045256820997
20
-53.784122150990015
30
0
40
4.771031305861996
210
0
220
0
230
1
100
AcDbArc
50
223.86061362517512
51
274.56775046847008
0
ARC
5
122
100
AcDbEntity
8
0
100
AcDbCircle
10
-18.590706793639999
20
-76.109607402769996
30
0
40
29.370759308172648
210
0
220
-0
230
1
100
AcDbArc
50
40.358600932549408
51
91.578949805416642
0
LINE
5
123
100
AcDbEntity
8
0
100
AcDbLine
10
-19.39999999999997
20
-46.750000000000639
30
0
11
-46.398448000000002
21
-46.75
31
0
0
LINE
5
124
100
AcDbEntity
8
0
100
AcDbLine
10
-49.841592000000006
20
-46.750039999999473
30
0
11
-66.670000000000002
21
-46.750000000000007
31
0
0
ARC
5
125
100
AcDbEntity
8
0
100
AcDbCircle
10
-66.679877052649999
20
-45.533365141790014
30
0
40
1.2166749501660037
210
0
220
0
230
1
100
AcDbArc
50
180.00390196712794
51
270.46513626904346
0
LINE
5
126
100
AcDbEntity
8
0
100
AcDbLine
10
-67.8965519999946
20
-45.533448000000007
30
0
11
-67.896551999994571
21
11.57
31
0
0
LWPOLYLINE
5
127
100
AcDbEntity
8
0
100
AcDbPolyline
90
8
70
1
43
0.0
10
-50.150000000000006
20
-4.75
10
-50.150000000000006
20
8.8499999999999996
42
0.41421356237309825
10
-50.350000000000001
20
9.0499999999999972
10
-63.949999999999996
20
9.0500000000000007
42
0.41421356237310153
10
-64.149999999999991
20
8.8499999999999996
10
-64.149999999999991
20
-4.75
42
0.41421356237309992
10
-63.949999999999996
20
-4.9499999999999993
10
-50.350000000000001
20
-4.9499999999999993
42
0.41421356237309992
0
LWPOLYLINE
5
128
100
AcDbEntity
8
0
100
AcDbPolyline
90
8
70
1
43
0.0
10
-64.149999999999991
20
-23.800000000000004
10
-64.149999999999991
20
-10.199999999999999
42
-0.41421356237309825
10
-63.949999999999996
20
-10.000000000000002
10
-50.350000000000001
20
-10.000000000000002
42
-0.41421356237309825
10
-50.150000000000006
20
-10.199999999999999
10
-50.150000000000006
20
-23.800000000000004
42
-0.41421356237310153
10
-50.350000000000001
20
-24.000000000000004
10
-63.949999999999996
20
-24.000000000000004
42
-0.41421356237310153
0
LWPOLYLINE
5
129
100
AcDbEntity
8
0
100
AcDbPolyline
90
8
70
1
43
0.0
10
-31.099999999999998
20
-4.75
10
-31.100000000000001
20
8.8499999999999996
42
0.41421356237309664
10
-31.300000000000004
20
9.0500000000000007
10
-44.90000000000002
20
9.0500000000000007
42
0.41421356237308854
10
-45.100000000000009
20
8.8499999999999996
10
-45.100000000000009
20
-4.75
42
0.41421356237309992
10
-44.900000000000013
20
-4.9499999999999993
10
-31.300000000000004
20
-4.9500000000000002
42
0.41421356237310403
0
LWPOLYLINE
5
130
100
AcDbEntity
8
0
100
AcDbPolyline
90
12
70
1
43
0.0
10
-45.100000000000009
20
-11
10
-45.100000000000009
20
-10.199999999999999
42
-0.41421356237309825
10
-44.900000000000013
20
-10.000000000000002
10
-31.300000000000008
20
-10.000000000000002
42
-0.4142135623731048
10
-31.100000000000001
20
-10.199999999999999
10
-31.100000000000001
20
-11
10
-31.100000000000001
20
-23.000000000000004
10
-31.100000000000001
20
-23.800000000000004
42
-0.41421356237310802
10
-31.300000000000004
20
-24.000000000000004
10
-44.90000000000002
20
-24.000000000000004
42
-0.41421356237308854
10
-45.100000000000009
20
-23.800000000000004
10
-45.100000000000009
20
-23.000000000000004
0
LWPOLYLINE
5
131
100
AcDbEntity
8
0
100
AcDbPolyline
90
10
70
1
43
0.0
10
-64.149999999999991
20
-30.050000000000004
10
-64.149999999999991
20
-29.250000000000004
42
-0.41421356237310153
10
-63.949999999999996
20
-29.050000000000004
10
-50.350000000000001
20
-29.050000000000004
42
-0.41421356237310153
10
-50.150000000000006
20
-29.250000000000004
10
-50.150000000000006
20
-42.850000000000001
42
-0.41421356237309503
10
-50.350000000000001
20
-43.049999999999997
10
-63.949999999999996
20
-43.049999999999997
42
-0.41421356237309503
10
-64.149999999999991
20
-42.850000000000001
10
-64.149999999999991
20
-42.049999999999997
0
LWPOLYLINE
5
132
100
AcDbEntity
8
0
100
AcDbPolyline
90
12
70
1
43
0.0
10
-45.100000000000009
20
-30.050000000000004
10
-45.100000000000009
20
-29.250000000000004
42
-0.41421356237308854
10
-44.90000000000002
20
-29.050000000000004
10
-31.300000000000004
20
-29.050000000000004
42
-0.41421356237310802
10
-31.100000000000001
20
-29.250000000000004
10
-31.100000000000001
20
-30.050000000000004
10
-31.100000000000001
20
-42.049999999999997
10
-31.100000000000001
20
-42.850000000000001
42
-0.41421356237310153
10
-31.300000000000004
20
-43.049999999999997
10
-44.900000000000013
20
-43.049999999999997
42
-0.41421356237309503
10
-45.100000000000009
20
-42.850000000000001
10
-45.100000000000009
20
-42.049999999999997
0
LWPOLYLINE
5
133
100
AcDbEntity
8
0
100
AcDbPolyline
90
12
70
1
43
0.0
10
-26.050000000000004
20
-18.050000000000001
10
-26.050000000000004
20
-17.25
42
-0.41421356237309825
10
-25.850000000000009
20
-17.050000000000004
10
-12.25
20
-17.050000000000001
42
-0.41421356237310153
10
-12.050000000000001
20
-17.25
10
-12.050000000000001
20
-18.050000000000001
10
-12.050000000000001
20
-30.050000000000004
10
-12.050000000000002
20
-30.850000000000009
42
-0.41421356237309825
10
-12.25
20
-31.050000000000004
10
-25.850000000000005
20
-31.050000000000004
42
-0.41421356237310802
10
-26.050000000000004
20
-30.850000000000005
10
-26.050000000000004
20
-30.050000000000004
0
LWPOLYLINE
5
134
100
AcDbEntity
8
0
100
AcDbPolyline
90
12
70
1
43
0.0
10
-12.050000000000001
20
-11.800000000000001
10
-12.050000000000001
20
-11
10
-12.050000000000001
20
1
10
-12.050000000000001
20
1.7999999999999998
42
0.41421356237309587
10
-12.25
20
2.0000000000000009
10
-25.850000000000005
20
1.9999999999999978
42
0.41421356237310442
10
-26.050000000000004
20
1.8000000000000003
10
-26.050000000000004
20
1
10
-26.050000000000004
20
-11
10
-26.050000000000004
20
-11.800000000000001
42
0.41421356237309825
10
-25.850000000000009
20
-12
10
-12.25
20
-12.000000000000002
42
0.41421356237310153
0
LWPOLYLINE
5
135
100
AcDbEntity
8
0
100
AcDbPolyline
90
8
70
1
43
0.0
10
-12.050000000000001
20
7.2500000000000009
10
-12.050000000000001
20
20.850000000000001
42
0.41421356237309503
10
-12.25
20
21.050000000000001
10
-25.850000000000005
20
21.049999999999997
42
0.41421356237310153
10
-26.050000000000004
20
20.850000000000001
10
-26.050000000000008
20
7.2500000000000009
42
0.41421356237310314
10
-25.850000000000005
20
7.0499999999999998
10
-12.25
20
7.0500000000000007
42
0.41421356237309503
0
LWPOLYLINE
5
136
100
AcDbEntity
8
0
100
AcDbPolyline
90
8
70
1
43
0.0
10
-7
20
12.25
42
0.41421356237309342
10
-6.8000000000000007
20
12.050000000000001
10
6.8000000000000007
20
12.050000000000001
42
0.41421356237309342
10
7
20
12.25
10
6.9999999999999964
20
25.850000000000005
42
0.41421356237310153
10
6.8000000000000007
20
26.050000000000004
10
-6.8000000000000007
20
26.050000000000004
42
0.41421356237310153
10
-6.9999999999999964
20
25.850000000000005
0
LWPOLYLINE
5
137
100
AcDbEntity
8
0
100
AcDbPolyline
90
12
70
1
43
0.0
10
-7.0000000000000009
20
6.0000000000000009
10
-7.0000000000000009
20
6.8000000000000007
42
-0.41421356237308854
10
-6.8000000000000007
20
7.0000000000000009
10
6.8000000000000007
20
7.0000000000000009
42
-0.41421356237308854
10
7.0000000000000009
20
6.8000000000000007
10
7.0000000000000009
20
6.0000000000000009
10
7.0000000000000009
20
-6.0000000000000009
10
7.0000000000000009
20
-6.8000000000000007
42
-0.41421356237308854
10
6.8000000000000007
20
-7.0000000000000009
10
-6.8000000000000007
20
-7.0000000000000009
42
-0.41421356237308854
10
-7.0000000000000009
20
-6.8000000000000007
10
-7.0000000000000009
20
-6.0000000000000009
0
LWPOLYLINE
5
138
100
AcDbEntity
8
0
100
AcDbPolyline
90
16
70
1
43
0.0
10
6.8000000000000007
20
-12.050000000000001
10
6.0000000000000009
20
-12.050000000000001
10
-6.0000000000000009
20
-12.050000000000001
10
-6.8000000000000007
20
-12.050000000000001
42
0.41421356237309342
10
-7.0000000000000009
20
-12.25
10
-7.0000000000000009
20
-13.050000000000001
10
-7.0000000000000009
20
-25.050000000000004
10
-6.9999999999999964
20
-25.850000000000005
42
0.41421356237310153
10
-6.8000000000000007
20
-26.050000000000004
10
-6.0000000000000009
20
-26.050000000000004
10
6.0000000000000009
20
-26.050000000000004
10
6.8000000000000007
20
-26.050000000000008
42
0.41421356237310153
10
7.0000000000000009
20
-25.850000000000005
10
7.0000000000000009
20
-25.050000000000004
10
7.0000000000000009
20
-13.050000000000001
10
7
20
-12.25
42
0.41421356237309342
0
LWPOLYLINE
5
139
100
AcDbEntity
8
0
100
AcDbPolyline
90
8
70
1
43
0.0
10
12.050000000000001
20
7.2500000000000009
10
12.050000000000001
20
20.850000000000001
42
-0.41421356237309503
10
12.25
20
21.050000000000001
10
25.850000000000005
20
21.049999999999997
42
-0.41421356237310153
10
26.050000000000004
20
20.850000000000001
10
26.050000000000008
20
7.2500000000000009
42
-0.41421356237310314
10
25.850000000000005
20
7.0500000000000007
10
12.25
20
7.0500000000000007
42
-0.41421356237309503
0
LWPOLYLINE
5
140
100
AcDbEntity
8
0
100
AcDbPolyline
90
16
70
1
43
0.0
10
25.850000000000005
20
2
10
25.050000000000004
20
2
10
13.050000000000001
20
2
10
12.25
20
2.0000000000000013
42
0.41421356237309626
10
12.050000000000001
20
1.8000000000000003
10
12.050000000000001
20
1
10
12.050000000000001
20
-11
10
12.050000000000001
20
-11.800000000000001
42
0.41421356237310153
10
12.25
20
-12.000000000000002
10
13.050000000000001
20
-12.000000000000002
10
25.050000000000004
20
-12.000000000000002
10
25.850000000000009
20
-12
42
0.41421356237309825
10
26.050000000000004
20
-11.800000000000001
10
26.050000000000004
20
-11
10
26.050000000000004
20
1
10
26.050000000000004
20
1.8000000000000003
42
0.41421356237310442
0
LWPOLYLINE
5
141
100
AcDbEntity
8
0
100
AcDbPolyline
90
8
70
1
43
0.0
10
45.100000000000009
20
5.25
10
45.100000000000009
20
18.850000000000001
42
0.41421356237309825
10
44.900000000000013
20
19.050000000000001
10
31.299999999999997
20
19.050000000000001
42
0.41421356237309825
10
31.100000000000001
20
18.850000000000001
10
31.100000000000001
20
5.25
42
0.41421356237310153
10
31.300000000000004
20
5.0500000000000043
10
44.900000000000013
20
5.0499999999999998
42
0.41421356237310153
0
LWPOLYLINE
5
142
100
AcDbEntity
8
0
100
AcDbPolyline
90
16
70
1
43
0.0
10
31.100000000000001
20
-13.800000000000001
42
0.41421356237309825
10
31.299999999999997
20
-14
10
32.100000000000001
20
-14.000000000000002
10
44.100000000000001
20
-14.000000000000002
10
44.900000000000013
20
-14
42
0.41421356237309825
10
45.100000000000009
20
-13.800000000000001
10
45.100000000000009
20
-13
10
45.100000000000009
20
-1
10
45.100000000000009
20
-0.20000000000000021
42
0.41421356237310031
10
44.900000000000013
20
0
10
44.100000000000001
20
0
10
32.100000000000001
20
0
10
31.300000000000004
20
-2.4980018054066022e-15
42
0.41421356237310442
10
31.100000000000001
20
-0.20000000000000018
10
31.100000000000001
20
-1.0000000000000009
10
31.100000000000001
20
-13
0
LWPOLYLINE
5
143
100
AcDbEntity
8
0
100
AcDbPolyline
90
16
70
1
43
0.0
10
12.050000000000002
20
-30.850000000000009
42
0.41421356237309825
10
12.25
20
-31.050000000000004
10
13.050000000000001
20
-31.050000000000004
10
25.050000000000004
20
-31.050000000000004
10
25.850000000000005
20
-31.050000000000004
42
0.41421356237310802
10
26.050000000000004
20
-30.850000000000005
10
26.050000000000004
20
-30.050000000000004
10
26.050000000000004
20
-18.050000000000001
10
26.050000000000004
20
-17.25
42
0.41421356237309825
10
25.850000000000009
20
-17.050000000000004
10
25.050000000000004
20
-17.050000000000001
10
13.050000000000001
20
-17.050000000000001
10
12.25
20
-17.050000000000001
42
0.41421356237310153
10
12.050000000000001
20
-17.25
10
12.050000000000001
20
-18.050000000000001
10
12.050000000000001
20
-30.050000000000004
0
LWPOLYLINE
5
144
100
AcDbEntity
8
0
100
AcDbPolyline
90
16
70
1
43
0.0
10
31.100000000000001
20
-32.849999999999994
42
0.41421356237310802
10
31.300000000000004
20
-33.049999999999997
10
32.100000000000001
20
-33.049999999999997
10
44.100000000000001
20
-33.049999999999997
10
44.90000000000002
20
-33.049999999999997
42
0.41421356237308854
10
45.100000000000009
20
-32.849999999999994
10
45.100000000000009
20
-32.049999999999997
10
45.100000000000009
20
-20.050000000000004
10
45.100000000000009
20
-19.250000000000004
42
0.41421356237309825
10
44.900000000000013
20
-19.050000000000004
10
44.100000000000001
20
-19.050000000000004
10
32.100000000000001
20
-19.050000000000004
10
31.299999999999997
20
-19.050000000000004
42
0.41421356237309825
10
31.100000000000001
20
-19.250000000000004
10
31.100000000000001
20
-20.050000000000004
10
31.100000000000001
20
-32.049999999999997
0
LWPOLYLINE
5
145
100
AcDbEntity
8
0
100
AcDbPolyline
90
16
70
1
43
0.0
10
21.064033865909316
20
-39.583978211731448
10
20.267078000000001
20
-39.653703
10
8.3127420000000001
20
-40.699572000000003
10
7.515786151455468
20
-40.769295986749484
42
0.41421385415175033
10
7.3339782117314467
20
-40.985966134090702
10
7.4037029999999993
20
-41.782922000000006
10
8.4495719999999999
20
-53.737257999999997
10
8.51929598674948
20
-54.534213848544525
42
0.41421385415169998
10
8.7359661340906918
20
-54.716021788268556
10
9.5329219999999992
20
-54.646296999999997
10
21.487258000000004
20
-53.600428000000008
10
22.284213848544535
20
-53.530704013250514
42
0.41421385415172207
10
22.466021788268552
20
-53.314033865909309
10
22.396297000000001
20
-52.517077999999998
10
21.350428000000004
20
-40.562742
10
21.280704013250524
20
-39.765786151455472
42
0.41421385415171619
0
LWPOLYLINE
5
146
100
AcDbEntity
8
0
100
AcDbPolyline
90
16
70
1
43
0.0
10
44.812230247862182
20
-42.437153373174034
10
44.024384000000005
20
-42.298235000000005
10
32.206691000000006
20
-40.214457000000003
10
31.418844717935727
20
-40.07553782079534
42
0.41421385081656642
10
31.187153373174034
20
-40.237769752137815
10
31.048235000000002
20
-41.025616000000007
10
28.964457000000003
20
-52.843309000000005
10
28.825537820795347
20
-53.631155282064277
42
0.4142138508165269
10
28.987769752137819
20
-53.862846626825977
10
29.775615999999999
20
-54.001765000000006
10
41.593308999999998
20
-56.085543000000008
10
42.381155282064277
20
-56.22446217920465
42
0.41421385081656753
10
42.61284662682597
20
-56.062230247862182
10
42.751764999999999
20
-55.274384000000005
10
44.835543000000008
20
-43.456691000000006
10
44.97446217920465
20
-42.668844717935734
42
0.41421385081653961
0
LWPOLYLINE
5
147
100
AcDbEntity
8
0
100
AcDbPolyline
90
16
70
1
43
0.0
10
67.021220527260539
20
-51.679649366081023
10
66.296174999999991
20
-51.341555
10
55.420481000000009
20
-46.270136000000008
10
54.695434508460686
20
-45.932041557314555
42
0.41421343859104987
10
54.429649366081023
20
-46.028779472739465
10
54.091555000000007
20
-46.753825000000006
10
49.020136000000001
20
-57.629519000000009
10
48.682041557314555
20
-58.354565491539319
42
0.41421343859104987
10
48.778779472739473
20
-58.620350633918989
10
49.503824999999999
20
-58.958444999999998
10
60.379519000000002
20
-64.029864000000003
10
61.104565491539311
20
-64.367958442685463
42
0.41421343859104987
10
61.370350633918981
20
-64.271220527260539
10
61.708445000000005
20
-63.546174999999998
10
66.779864000000003
20
-52.670481000000002
10
67.117958442685449
20
-51.945434508460693
42
0.41421343859104987
0
ARC
5
148
100
AcDbEntity
8
0
100
AcDbCircle
10
57.655295997559328
20
-33.136698155742046
30
0
40
10.322410265164157
210
0
220
0
230
1
100
AcDbArc
50
193.66321771624158
51
245.00000052473334
0
LINE
5
149
100
AcDbEntity
8
0
100
AcDbLine
10
70.558020999999997
20
-50.542857000000005
30
0
11
53.292856999999998
21
-42.491978999999994
31
0
0
LINE
5
150
100
AcDbEntity
8
0
100
AcDbLine
10
47.625
20
-16.524999999999995
30
0
11
47.625
21
-35.574999999999996
31
0
0
LINE
5
151
100
AcDbEntity
8
0
100
AcDbLine
10
47.625
20
2.5249999999999999
30
0
11
47.625
21
-16.524999999999995
31
0
0
LINE
5
152
100
AcDbEntity
8
0
100
AcDbLine
10
47.625
20
2.5249999999999999
30
0
11
47.625
21
21.575000000000003
31
0
0
LINE
5
153
100
AcDbEntity
8
0
100
AcDbLine
10
47.625
20
21.575000000000003
30
0
11
47.624999972156957
21
22.759999388040583
31
0
0
LWPOLYLINE
5
154
100
AcDbEntity
8
0
100
AcDbPolyline
90
6
70
1
43
0.0
10
-48.124914999999987
20
9.0812699999997761
42
0.41428600023387785
10
-48.624914999991759
20
8.5812700000000053
10
-48.6249549999972
20
-5.974516999999997
42
0.41411800016944528
10
-48.124954999999986
20
-6.4745170000003158
42
0.41413400062774619
10
-47.624954999999986
20
-5.9745169999999979
10
-47.62491499999733
20
8.5812700000000035
42
0.41421800003707426
0
LWPOLYLINE
5
155
100
AcDbEntity
8
0
100
AcDbPolyline
90
6
70
1
43
0.0
10
-48.124954999999986
20
-8.4745170000002421
42
0.41421000011475845
10
-48.624954999999744
20
-8.974516999999997
10
-48.624999999992284
20
-25.024999999999995
42
0.41422600000406085
10
-48.124999999999986
20
-25.52499999999646
42
0.41420800000214963
10
-47.624999999999986
20
-25.024999999999995
10
-47.624954999994557
20
-8.974516999999997
42
0.41410800046132801
0
LWPOLYLINE
5
156
100
AcDbEntity
8
0
100
AcDbPolyline
90
6
70
1
43
0.0
10
-48.124999999999986
20
-27.524999999996776
42
0.41421199999782621
10
-48.624999999993207
20
-28.024999999999999
10
-48.625039999999736
20
-42.523488
42
0.41412400036190233
10
-48.125039999999984
20
-43.023487999999389
42
0.41420400008998853
10
-47.625039999999984
20
-42.523488
10
-47.62499999999676
20
-28.024999999999999
42
0.41421200000368458
0
ARC
5
157
100
AcDbEntity
8
0
100
AcDbCircle
10
-49.841659573649991
20
-45.533380212589989
30
0
40
1.2166597892865429
210
-0
220
0
230
1
100
AcDbArc
50
-89.996817775201123
51
0.46585601115197245
0
ARC
5
158
100
AcDbEntity
8
0
100
AcDbCircle
10
-48.125069392259988
20
-45.523458607730007
30
0
40
0.49997060859699594
210
0
220
-0
230
1
100
AcDbArc
50
89.996631697102657
51
180.00336830399817
0
ARC
5
159
100
AcDbEntity
8
0
100
AcDbCircle
10
-48.125121169179991
20
-45.523704074660003
30
0
40
0.50021608125299921
210
-0
220
0
230
1
100
AcDbArc
50
-1.1161598588953923
51
89.99070271501526
0
ARC
5
160
100
AcDbEntity
8
0
100
AcDbCircle
10
-46.408340212589991
20
-45.533380426340003
30
0
40
1.2166597892854245
210
0
220
0
230
1
100
AcDbArc
50
180.00318222523927
51
270.46585601114879
0
ARC
5
161
100
AcDbEntity
8
0
100
AcDbCircle
10
-49.841618154709984
20
11.591159031365008
30
0
40
1.2166631567882469
210
0
220
-0
230
1
100
AcDbArc
50
0.0033420945123020488
51
90.465696141712641
0
ARC
5
162
100
AcDbEntity
8
0
100
AcDbCircle
10
-48.124901189719992
20
11.581420026057005
30
0
40
0.50015002624799942
210
0
220
0
230
1
100
AcDbArc
50
178.876124922657
51
269.99841793318768
0
ARC
5
163
100
AcDbEntity
8
0
100
AcDbCircle
10
-46.408295426339983
20
11.591162212591009
30
0
40
1.2166597892855244
210
0
220
0
230
1
100
AcDbArc
50
90.003182225269697
51
180.4658560111958
0
ARC
5
164
100
AcDbEntity
8
0
100
AcDbCircle
10
-48.124885607729986
20
11.581240607733003
30
0
40
0.49997060859728737
210
0
220
0
230
1
100
AcDbArc
50
-90.00336830404305
51
0.0033683035653860375
0
LINE
5
165
100
AcDbEntity
8
0
100
AcDbLine
10
70.558020999999997
20
-50.542857000000005
30
0
11
71.687579940199086
21
-51.077209334662463
31
0
0
LINE
5
166
100
AcDbEntity
8
0
100
AcDbLine
10
63.629999999985955
20
-68.109999999993363
30
0
11
71.687579940199086
21
-51.077209334662463
31
0
0
LINE
5
167
100
AcDbEntity
8
0
100
AcDbLine
10
31.110000000000003
20
22.759998999999993
30
0
11
47.624999972156957
21
22.759999388040583
31
0
0
ENDSEC
0
SECTION
2
OBJECTS
0
DICTIONARY
5
C
100
AcDbDictionary
3
ACAD_GROUP
350
D
3
ACAD_MLINESTYLE
350
17
0
DICTIONARY
5
D
100
AcDbDictionary
0
DICTIONARY
5
1A
330
C
100
AcDbDictionary
0
DICTIONARY
5
17
100
AcDbDictionary
0
ENDSEC
0
EOF
